HIERARCHY
ROOT joint_Root
{
	OFFSET 0.0 0.0 0.0
	CHANNELS 6 Xposition Yposition Zposition Zrotation Xrotation Yrotation 
	JOINT Hips
	{
		OFFSET -17.1583 93.1646 452.98
		CHANNELS 6 Xposition Yposition Zposition Zrotation Xrotation Yrotation 
		JOINT Spine
		{
			OFFSET 15.7357 0.0 0.0
			CHANNELS 6 Xposition Yposition Zposition Zrotation Xrotation Yrotation 
			JOINT Chest
			{
				OFFSET 8.98455 -0.406207 0.0
				CHANNELS 6 Xposition Yposition Zposition Zrotation Xrotation Yrotation 
				JOINT Neck
				{
					OFFSET 16.3773 0.0 0.0
					CHANNELS 6 Xposition Yposition Zposition Zrotation Xrotation Yrotation 
					JOINT Head
					{
						OFFSET 6.45672 0.0 0.0
						CHANNELS 6 Xposition Yposition Zposition Zrotation Xrotation Yrotation 
						End Site
						{
							OFFSET 0.0 0.0 0.0
						}
					}
				}
				JOINT Shoulder_L
				{
					OFFSET 12.9942 -0.242716 4.98039
					CHANNELS 6 Xposition Yposition Zposition Zrotation Xrotation Yrotation 
					JOINT UpperArm_L
					{
						OFFSET 5.34809 0.0 0.0
						CHANNELS 6 Xposition Yposition Zposition Zrotation Xrotation Yrotation 
						JOINT LowerArm_L
						{
							OFFSET 24.3286 1.87007e-05 0.0
							CHANNELS 6 Xposition Yposition Zposition Zrotation Xrotation Yrotation 
							JOINT Hand_L
							{
								OFFSET 22.2916 0.0 0.0
								CHANNELS 6 Xposition Yposition Zposition Zrotation Xrotation Yrotation 
								End Site
								{
									OFFSET 0.0 0.0 0.0
								}
							}
						}
					}
				}
				JOINT Shoulder_R
				{
					OFFSET 12.9945 -0.242716 -4.98039
					CHANNELS 6 Xposition Yposition Zposition Zrotation Xrotation Yrotation 
					JOINT UpperArm_R
					{
						OFFSET -5.34813 0.0 0.0
						CHANNELS 6 Xposition Yposition Zposition Zrotation Xrotation Yrotation 
						JOINT LowerArm_R
						{
							OFFSET -24.3289 0.000322201 0.0
							CHANNELS 6 Xposition Yposition Zposition Zrotation Xrotation Yrotation 
							JOINT Hand_R
							{
								OFFSET -22.2915 -0.000108084 0.0
								CHANNELS 6 Xposition Yposition Zposition Zrotation Xrotation Yrotation 
								End Site
								{
									OFFSET 0.0 0.0 0.0
								}
							}
						}
					}
				}
			}
		}
		JOINT UpperLeg_L
		{
			OFFSET -2.19248 -6.46944 0.0
			CHANNELS 6 Xposition Yposition Zposition Zrotation Xrotation Yrotation 
			JOINT LowerLeg_L
			{
				OFFSET 39.0811 0.0 -1.23785e-05
				CHANNELS 6 Xposition Yposition Zposition Zrotation Xrotation Yrotation 
				JOINT Foot_L
				{
					OFFSET 40.9854 0.0 -1.26872e-05
					CHANNELS 6 Xposition Yposition Zposition Zrotation Xrotation Yrotation 
					JOINT Toes_L
					{
						OFFSET 11.7543 0.0 0.0
						CHANNELS 6 Xposition Yposition Zposition Zrotation Xrotation Yrotation 
						End Site
						{
							OFFSET 0.0 0.0 0.0
						}
					}
				}
			}
		}
		JOINT UpperLeg_R
		{
			OFFSET -2.19251 6.46944 0.0
			CHANNELS 6 Xposition Yposition Zposition Zrotation Xrotation Yrotation 
			JOINT LowerLeg_R
			{
				OFFSET -39.0811 -0.00228153 -0.0401928
				CHANNELS 6 Xposition Yposition Zposition Zrotation Xrotation Yrotation 
				JOINT Foot_R
				{
					OFFSET -40.9854 0.0 0.0
					CHANNELS 6 Xposition Yposition Zposition Zrotation Xrotation Yrotation 
					JOINT Toes_R
					{
						OFFSET -11.7543 0.0 0.0
						CHANNELS 6 Xposition Yposition Zposition Zrotation Xrotation Yrotation 
						End Site
						{
							OFFSET 0.0 0.0 0.0
						}
					}
				}
			}
		}
	}
}
MOTION
Frames:	8
Frame Time:	0.0333333
0.000000 0.000000 0.000000 0.000000 0.000000 -0.000000 157.903000 92.130200 205.846000 104.727000 -65.997300 10.375600 15.735700 0.000005 -0.000001 124.034000 87.522700 -125.412000 8.984550 -0.406207 -0.000000 -3.625930 2.908390 -2.665180 16.377300 -0.000001 -0.000001 4.093670 -2.768110 -0.516074 6.456720 -0.000001 -0.000000 6.540610 -6.014780 3.957980 12.994200 -0.242716 4.980390 -92.738500 7.004140 -68.582400 5.348090 -0.000007 -0.000001 -69.375300 -2.045020 8.717840 24.328600 0.000019 0.000005 9.997660 34.036400 -17.481400 22.291600 -0.000001 0.000005 42.212800 4.687660 13.379100 12.994500 -0.242716 -4.980390 88.857700 3.612690 -72.440100 -5.348130 -0.000001 -0.000004 -73.040400 12.800900 -16.512100 -24.328900 0.000322 -0.000009 -2.490530 -6.930460 -19.815300 -22.291500 -0.000108 -0.000004 37.628000 5.439770 -4.278350 -2.192480 -6.469440 -0.000000 -175.464000 -0.492000 -23.388200 39.081100 -0.000007 -0.000012 0.044497 -0.048246 42.683400 40.985400 -0.000006 -0.000013 -1.034180 -7.724280 -60.265900 11.754300 -0.000000 0.000003 0.002454 0.074186 -13.568000 -2.192510 6.469440 -0.000001 -175.210000 -14.360900 -178.772000 -39.081100 -0.002282 -0.040193 -0.006527 0.031364 17.439900 -40.985400 0.000008 0.000006 7.626760 5.267430 -69.621300 -11.754300 -0.000006 -0.000006 -0.000793 0.180085 -9.268400
0.000000 0.000000 0.000000 0.000000 0.000000 -0.000000 156.137000 92.361000 208.200000 107.585000 -70.244300 12.438200 15.735700 0.000005 -0.000001 130.319000 87.399400 -131.720000 8.984550 -0.406207 -0.000000 -3.759510 3.504140 -2.688620 16.377300 -0.000001 -0.000001 3.347520 -1.518220 -0.776603 6.456720 -0.000001 -0.000000 5.756810 -4.597810 4.048700 12.994200 -0.242716 4.980390 -92.714000 6.832890 -68.275800 5.348090 -0.000007 -0.000001 -68.202900 -5.049740 11.823900 24.328600 0.000019 0.000005 8.120360 33.292600 -14.570300 22.291600 -0.000001 0.000005 41.752300 4.657410 13.915500 12.994500 -0.242716 -4.980390 88.953200 3.427840 -73.007700 -5.348130 -0.000001 -0.000004 -73.253200 14.095500 -19.277700 -24.328900 0.000322 -0.000009 -2.460640 -6.221160 -21.624000 -22.291500 -0.000108 -0.000004 37.871000 5.440080 -4.288730 -2.192480 -6.469440 -0.000000 -174.650000 0.454641 -23.491400 39.081100 -0.000007 -0.000012 0.036661 -0.057444 32.545800 40.985400 -0.000006 -0.000013 -1.319980 -4.314400 -60.649600 11.754300 -0.000000 0.000003 0.002459 0.074806 -13.542900 -2.192510 6.469440 -0.000001 -176.754000 -15.648200 -177.664000 -39.081100 -0.002282 -0.040193 -0.006582 0.032716 16.851000 -40.985400 0.000008 0.000006 7.615290 8.227770 -69.389800 -11.754300 -0.000006 -0.000006 0.000882 0.151207 -10.441100
0.000000 0.000000 0.000000 0.000000 0.000000 -0.000000 154.138000 92.377700 210.531000 108.727000 -72.854700 12.992100 15.735700 0.000005 -0.000001 132.986000 87.373700 -134.231000 8.984550 -0.406207 -0.000000 -3.886210 3.705560 -2.364820 16.377300 -0.000001 -0.000001 2.462830 -0.881203 -0.939080 6.456720 -0.000001 -0.000000 5.130500 -3.719920 4.048330 12.994200 -0.242716 4.980390 -92.624600 6.586800 -68.217600 5.348090 -0.000007 -0.000001 -67.089000 -7.442310 14.383900 24.328600 0.000019 0.000005 7.050140 32.490100 -12.965500 22.291600 -0.000001 0.000005 41.683500 4.619090 14.584900 12.994500 -0.242716 -4.980390 89.093300 3.015010 -73.254400 -5.348130 -0.000001 -0.000004 -73.433700 14.857000 -20.277100 -24.328900 0.000322 -0.000009 -2.249990 -4.859700 -24.879100 -22.291500 -0.000108 -0.000004 38.054700 5.438280 -4.226080 -2.192480 -6.469440 -0.000000 -173.390000 2.162840 -23.114200 39.081100 -0.000007 -0.000012 0.019598 -0.049359 21.655500 40.985400 -0.000006 -0.000013 -2.804340 -1.053290 -61.215900 11.754300 -0.000000 0.000003 0.002478 0.078789 -13.381400 -2.192510 6.469440 -0.000001 -177.765000 -15.721900 -176.724000 -39.081100 -0.002282 -0.040193 -0.004632 0.026419 16.765800 -40.985400 0.000008 0.000006 7.540690 10.587000 -69.104500 -11.754300 -0.000006 -0.000006 0.002218 0.111468 -12.053000
0.000000 0.000000 0.000000 0.000000 0.000000 -0.000000 151.801000 92.224200 212.940000 108.459000 -74.409800 12.318500 15.735700 0.000005 -0.000001 134.945000 87.368000 -135.961000 8.984550 -0.406207 -0.000000 -4.010120 3.820420 -1.900190 16.377300 -0.000001 -0.000001 1.659540 -0.679143 -0.979797 6.456720 -0.000001 -0.000000 4.468390 -3.458610 4.034860 12.994200 -0.242716 4.980390 -92.477500 6.248300 -68.320000 5.348090 -0.000007 -0.000001 -66.047900 -9.248540 16.291500 24.328600 0.000019 0.000005 6.735740 31.947200 -12.582300 22.291600 -0.000001 0.000005 41.795700 4.598990 14.931900 12.994500 -0.242716 -4.980390 89.168700 2.785890 -73.378900 -5.348130 -0.000001 -0.000004 -73.368400 14.698700 -19.579100 -24.328900 0.000322 -0.000009 -1.526240 -2.742440 -29.115400 -22.291500 -0.000108 -0.000004 37.927200 5.439490 -4.267320 -2.192480 -6.469440 -0.000000 -172.844000 2.680510 -22.173500 39.081100 -0.000007 -0.000012 0.005022 -0.026184 10.858800 40.985400 -0.000006 -0.000013 -2.973330 0.491182 -62.248400 11.754300 -0.000000 0.000003 0.002466 0.075986 -13.495000 -2.192510 6.469440 -0.000001 -178.442000 -15.228300 -175.560000 -39.081100 -0.002282 -0.040193 -0.002448 0.019025 16.885900 -40.985400 0.000008 0.000006 7.441340 12.294900 -68.717100 -11.754300 -0.000006 -0.000006 0.002403 0.068273 -13.804100
0.000000 0.000000 0.000000 0.000000 0.000000 -0.000000 149.079000 91.873700 215.474000 107.852000 -75.591800 11.314600 15.735700 0.000005 -0.000001 138.384000 87.379400 -139.174000 8.984550 -0.406207 -0.000000 -4.262430 3.998320 -1.433030 16.377300 -0.000001 -0.000001 0.959058 -0.697592 -0.869601 6.456720 -0.000001 -0.000000 3.843550 -3.503430 3.874500 12.994200 -0.242716 4.980390 -92.343300 5.926170 -68.379300 5.348090 -0.000007 -0.000001 -65.057200 -10.380700 17.569800 24.328600 0.000019 0.000005 6.912090 31.517000 -13.056300 22.291600 -0.000001 0.000005 41.871300 4.589530 15.094200 12.994500 -0.242716 -4.980390 89.232000 2.584720 -73.445400 -5.348130 -0.000001 -0.000004 -73.367300 13.987100 -18.011600 -24.328900 0.000322 -0.000009 -0.333516 -0.518176 -32.720000 -22.291500 -0.000108 -0.000004 37.701800 5.438210 -4.223990 -2.192480 -6.469440 -0.000000 -174.006000 -0.032322 -22.547600 39.081100 -0.000007 -0.000012 -0.001959 0.023196 4.826280 40.985400 -0.000006 -0.000013 -4.982120 3.158120 -64.394100 11.754300 -0.000000 0.000003 0.002487 0.083982 -13.170900 -2.192510 6.469440 -0.000001 -179.035000 -14.702000 -174.487000 -39.081100 -0.002282 -0.040193 -0.002366 0.017909 17.630300 -40.985400 0.000008 0.000006 7.696600 13.358400 -68.089700 -11.754300 -0.000006 -0.000006 -0.000398 -0.006448 -16.835700
0.000000 0.000000 0.000000 0.000000 0.000000 -0.000000 145.911000 91.346200 218.132000 108.099000 -76.782800 11.376100 15.735700 0.000005 -0.000001 142.336000 87.366300 -143.006000 8.984550 -0.406207 -0.000000 -4.528810 4.238020 -1.174650 16.377300 -0.000001 -0.000001 0.559631 -0.726504 -0.633603 6.456720 -0.000001 -0.000000 3.234760 -3.607450 3.837280 12.994200 -0.242716 4.980390 -92.247200 5.680180 -68.372900 5.348090 -0.000007 -0.000001 -64.013100 -11.083100 18.220200 24.328600 0.000019 0.000005 7.165200 30.900200 -13.755100 22.291600 -0.000001 0.000005 41.986500 4.589800 15.089700 12.994500 -0.242716 -4.980390 89.259800 2.502390 -73.515200 -5.348130 -0.000001 -0.000004 -73.372900 13.283800 -16.380700 -24.328900 0.000322 -0.000009 0.568376 0.841248 -34.096400 -22.291500 -0.000108 -0.000004 37.622100 5.441570 -4.340880 -2.192480 -6.469440 -0.000000 -175.448000 -2.004760 -23.151900 39.081100 -0.000007 -0.000012 -0.003894 0.072902 3.057110 40.985400 -0.000006 -0.000013 -5.163930 6.510850 -66.495700 11.754300 -0.000000 0.000003 0.002479 0.088602 -12.983600 -2.192510 6.469440 -0.000001 -179.580000 -14.589200 -173.515000 -39.081100 -0.002282 -0.040193 -0.006174 0.026807 19.506200 -40.985400 0.000008 0.000006 8.576010 13.852900 -67.360900 -11.754300 -0.000006 -0.000006 -0.009297 -0.098310 -20.577800
0.000000 0.000000 0.000000 0.000000 0.000000 -0.000000 142.335000 90.674200 220.821000 109.876000 -77.839200 12.755900 15.735700 0.000005 -0.000001 147.733000 87.529000 -148.394000 8.984550 -0.406207 -0.000000 -5.110450 4.248450 -1.133800 16.377300 -0.000001 -0.000001 0.430065 -0.744598 -0.316889 6.456720 -0.000001 -0.000000 2.781710 -3.516010 3.721460 12.994200 -0.242716 4.980390 -92.295900 5.825680 -68.446900 5.348090 -0.000007 -0.000001 -62.801600 -11.372100 18.488300 24.328600 0.000019 0.000005 7.450520 30.562000 -14.423300 22.291600 -0.000001 0.000005 42.179900 4.595560 14.990900 12.994500 -0.242716 -4.980390 89.263900 2.473300 -73.420100 -5.348130 -0.000001 -0.000004 -73.342200 12.953000 -14.793400 -24.328900 0.000322 -0.000009 0.752575 1.138190 -33.513700 -22.291500 -0.000108 -0.000004 37.453300 5.447730 -4.559010 -2.192480 -6.469440 -0.000000 -175.417000 -1.193130 -23.831900 39.081100 -0.000007 -0.000012 -0.004337 0.052127 4.755690 40.985400 -0.000006 -0.000013 -12.279400 8.293400 -62.856300 11.754300 -0.000000 0.000003 0.002465 0.075798 -13.502700 -2.192510 6.469440 -0.000001 179.667000 -14.416200 -173.491000 -39.081100 -0.002282 -0.040193 -0.017331 0.048721 22.966400 -40.985400 0.000008 0.000006 9.420120 13.625500 -65.595300 -11.754300 -0.000006 -0.000006 -0.033550 -0.233297 -26.139800
0.000000 0.000000 0.000000 0.000000 0.000000 -0.000000 138.498000 90.048100 223.631000 117.404000 -78.447300 19.534200 15.735700 0.000005 -0.000001 156.635000 87.926200 -157.740000 8.984550 -0.406207 -0.000000 -6.090240 3.934980 -2.003200 16.377300 -0.000001 -0.000001 0.804198 -0.651166 0.170254 6.456720 -0.000001 -0.000000 2.442550 -3.135020 3.889470 12.994200 -0.242716 4.980390 -92.515600 6.462450 -68.677200 5.348090 -0.000007 -0.000001 -61.123700 -11.517300 18.438900 24.328600 0.000019 0.000005 7.595150 30.393900 -14.764600 22.291600 -0.000001 0.000005 42.489000 4.593390 15.028100 12.994500 -0.242716 -4.980390 88.977100 3.407480 -73.280800 -5.348130 -0.000001 -0.000004 -72.617700 12.842100 -12.714800 -24.328900 0.000322 -0.000009 0.536365 0.865614 -31.842800 -22.291500 -0.000108 -0.000004 37.270700 5.448400 -4.585150 -2.192480 -6.469440 -0.000000 -177.694000 0.477144 -30.444400 39.081100 -0.000007 -0.000012 -0.040041 0.115875 19.062500 40.985400 -0.000006 -0.000013 -7.926860 7.798570 -60.429000 11.754300 -0.000000 0.000003 0.002471 0.090692 -12.898900 -2.192510 6.469440 -0.000001 177.629000 -13.806800 -175.056000 -39.081100 -0.002282 -0.040193 -0.044387 0.088027 28.448500 -40.985400 0.000008 0.000006 10.021700 13.170700 -61.940500 -11.754300 -0.000006 -0.000006 -0.079958 -0.391824 -32.840100
